<svg width="16" height="16" viewBox="0 0 16 16" fill="none" xmlns="http://www.w3.org/2000/svg">
<path d="M6.93872 7.93848C7.32914 7.5482 7.96228 7.54835 8.35278 7.93848L12.5959 12.1816C12.9863 12.5721 12.9863 13.2052 12.5959 13.5957C12.2055 13.9862 11.5724 13.9861 11.1819 13.5957L6.93872 9.35352C6.5482 8.96299 6.5482 8.329 6.93872 7.93848ZM3.58032 4.22656C4.26375 3.54333 5.37157 3.54322 6.05493 4.22656L6.40845 4.58008C7.09181 5.26344 7.09169 6.37126 6.40845 7.05469L6.05493 7.4082C5.37151 8.09162 4.26374 8.09162 3.58032 7.4082L3.22681 7.05469C2.5434 6.37127 2.54339 5.26349 3.22681 4.58008L3.58032 4.22656ZM11.5657 5.60156C11.7409 5.60168 11.8964 5.71617 11.9475 5.88379C11.9915 6.02842 12.1045 6.14173 12.2483 6.18555C12.4157 6.23675 12.5304 6.39134 12.5305 6.56641C12.5305 6.74164 12.4159 6.89704 12.2483 6.94824C12.1044 6.99209 11.9915 7.10455 11.9475 7.24902C11.8965 7.4168 11.741 7.53211 11.5657 7.53223C11.3905 7.53204 11.2358 7.41668 11.1848 7.24902C11.1408 7.10457 11.0277 6.99216 10.884 6.94824C10.7163 6.89711 10.6018 6.74171 10.6018 6.56641C10.6019 6.39123 10.7165 6.23664 10.884 6.18555C11.0277 6.14168 11.1408 6.02846 11.1848 5.88379L11.2083 5.82422C11.2743 5.6897 11.4122 5.60172 11.5657 5.60156ZM4.99438 5.28711C4.89681 5.18955 4.73851 5.18966 4.64087 5.28711L4.28735 5.64062C4.18973 5.73825 4.18974 5.89651 4.28735 5.99414L4.64087 6.34766C4.7385 6.44529 4.89675 6.44529 4.99438 6.34766L5.3479 5.99414C5.44535 5.8965 5.44547 5.7382 5.3479 5.64062L4.99438 5.28711ZM9.75024 1.47168C9.98266 1.4718 10.1876 1.62428 10.2551 1.84668C10.3134 2.03836 10.4639 2.18802 10.6545 2.24609C10.8765 2.31399 11.0285 2.51886 11.0286 2.75098C11.0286 2.98314 10.8765 3.18791 10.6545 3.25586C10.4638 3.31402 10.3134 3.4646 10.2551 3.65625C10.1874 3.87835 9.98247 4.03015 9.75024 4.03027C9.51793 4.03027 9.31315 3.87842 9.24536 3.65625C9.18707 3.46454 9.03657 3.31406 8.84595 3.25586C8.62389 3.18798 8.4719 2.98321 8.47192 2.75098C8.47199 2.51879 8.62391 2.31393 8.84595 2.24609C9.03637 2.18799 9.18702 2.03837 9.24536 1.84668L9.27661 1.7666C9.36436 1.58846 9.5468 1.47168 9.75024 1.47168Z" fill="#1C1C1C" style="fill:#1C1C1C;fill:color(display-p3 0.1098 0.1098 0.1098);fill-opacity:1;"/>
</svg>
