<svg width="20" height="20" viewBox="0 0 20 20" fill="none" xmlns="http://www.w3.org/2000/svg">
<path d="M10.0091 1.56494C5.60513 1.56494 2.018 5.15207 2.018 9.55606V10.7459C2.00912 10.7991 2.00024 10.8524 2.00024 10.9057V17.5472C2.00024 18.0355 2.3998 18.4351 2.88815 18.4351H5.36539C5.85374 18.4351 6.2533 18.0355 6.2533 17.5472V16.8546C7.23887 17.8313 8.55296 18.4351 10.0091 18.4351C11.4653 18.4351 12.7705 17.8313 13.765 16.8546V17.5472C13.765 18.0355 14.1645 18.4351 14.6529 18.4351H17.1123C17.6007 18.4351 18.0002 18.0355 18.0002 17.5472V9.55606C18.0002 5.15207 14.4131 1.56494 10.0091 1.56494ZM10.0091 16.6593C7.94031 16.6593 6.2533 14.8124 6.2533 12.5305V10.9678C7.05241 10.1954 7.56739 9.39624 7.87816 8.6504C8.89037 9.92898 10.6662 11.1987 13.7561 11.4295V12.5394C13.7561 14.8124 12.0779 16.6593 10.0091 16.6593ZM16.2244 16.6593H15.5408V10.5772C15.5408 10.0888 15.1501 9.68925 14.6617 9.68925C9.33432 9.64485 8.46417 6.25307 8.34875 5.64041C8.33099 5.54274 8.31323 5.48059 8.31323 5.46283C8.21556 5.00112 7.77161 4.69924 7.30102 4.77027C6.83043 4.8413 6.50191 5.27637 6.56406 5.74696C6.56406 5.74696 6.57294 5.79136 6.58182 5.86239C6.62622 6.16428 6.82155 8.11766 4.77938 9.90234C4.68376 9.9848 4.60723 10.0871 4.5551 10.2021C4.50297 10.3171 4.47648 10.442 4.47749 10.5683V16.6504H3.77605V12.4151C3.78493 12.3618 3.79381 12.3086 3.79381 12.2464V9.55606C3.79381 6.12876 6.58182 3.34075 10.0091 3.34075C13.4364 3.34075 16.2244 6.12876 16.2244 9.55606V16.6593Z" fill="#1C1C1C" style="fill:#1C1C1C;fill:color(display-p3 0.1098 0.1098 0.1098);fill-opacity:1;"/>
</svg>
