<svg width="16" height="16" viewBox="0 0 16 16" fill="none" xmlns="http://www.w3.org/2000/svg">
<path d="M1.99982 4.66667V3.33333C1.99982 2.6 2.59982 2 3.33315 2H4.66648" stroke="#1C1C1C" style="stroke:#1C1C1C;stroke:color(display-p3 0.1098 0.1098 0.1098);stroke-opacity:1;" stroke-width="1.33333" stroke-linecap="round" stroke-linejoin="round"/>
<path d="M11.3335 2H12.6668C13.4002 2 14.0002 2.6 14.0002 3.33333V4.66667" stroke="#1C1C1C" style="stroke:#1C1C1C;stroke:color(display-p3 0.1098 0.1098 0.1098);stroke-opacity:1;" stroke-width="1.33333" stroke-linecap="round" stroke-linejoin="round"/>
<path d="M14.0002 11.3335V12.6668C14.0002 13.4002 13.4002 14.0002 12.6668 14.0002H11.3335" stroke="#1C1C1C" style="stroke:#1C1C1C;stroke:color(display-p3 0.1098 0.1098 0.1098);stroke-opacity:1;" stroke-width="1.33333" stroke-linecap="round" stroke-linejoin="round"/>
<path d="M4.66648 14.0002H3.33315C2.59982 14.0002 1.99982 13.4002 1.99982 12.6668V11.3335" stroke="#1C1C1C" style="stroke:#1C1C1C;stroke:color(display-p3 0.1098 0.1098 0.1098);stroke-opacity:1;" stroke-width="1.33333" stroke-linecap="round" stroke-linejoin="round"/>
<path d="M8.66626 4.66675H5.33293C4.96474 4.66675 4.66626 4.96522 4.66626 5.33341V7.33341C4.66626 7.7016 4.96474 8.00008 5.33293 8.00008H8.66626C9.03445 8.00008 9.33293 7.7016 9.33293 7.33341V5.33341C9.33293 4.96522 9.03445 4.66675 8.66626 4.66675Z" stroke="#1C1C1C" style="stroke:#1C1C1C;stroke:color(display-p3 0.1098 0.1098 0.1098);stroke-opacity:1;" stroke-width="1.33333" stroke-linecap="round" stroke-linejoin="round"/>
<path d="M10.6663 8H7.33293C6.96474 8 6.66626 8.29848 6.66626 8.66667V10.6667C6.66626 11.0349 6.96474 11.3333 7.33293 11.3333H10.6663C11.0344 11.3333 11.3329 11.0349 11.3329 10.6667V8.66667C11.3329 8.29848 11.0344 8 10.6663 8Z" stroke="#1C1C1C" style="stroke:#1C1C1C;stroke:color(display-p3 0.1098 0.1098 0.1098);stroke-opacity:1;" stroke-width="1.33333" stroke-linecap="round" stroke-linejoin="round"/>
</svg>
