<svg width="24" height="24" viewBox="0 0 24 24" fill="none" xmlns="http://www.w3.org/2000/svg">
<g clip-path="url(#clip0_1_2582)">
<path d="M16.9824 5.8454C16.7844 5.8452 16.5871 5.87009 16.3954 5.91948V5.8454C16.3957 5.3149 16.2161 4.79997 15.8858 4.3848C15.5556 3.96962 15.0943 3.67876 14.5773 3.55975C14.0603 3.44073 13.5183 3.50062 13.0397 3.7296C12.5612 3.95859 12.1745 4.34314 11.9428 4.82039C11.588 4.68761 11.2063 4.64282 10.8304 4.68985C10.4545 4.73688 10.0956 4.87433 9.7844 5.09042C9.47323 5.30651 9.21907 5.5948 9.0437 5.93061C8.86833 6.26642 8.77697 6.63974 8.77744 7.01858V10.7465C8.39546 10.3126 7.86656 10.0351 7.29238 9.96737C6.71821 9.89969 6.13928 10.0466 5.66685 10.3799C5.19442 10.7131 4.86182 11.2092 4.73299 11.7728C4.60415 12.3365 4.68816 12.9278 4.96887 13.4332C7.29977 18.3466 8.73103 20.5 12.5868 20.5C14.374 20.4983 16.0875 19.7875 17.351 18.5236C18.6146 17.2597 19.325 15.5461 19.3263 13.7589V8.19013C19.3264 7.88226 19.2659 7.57737 19.1481 7.2929C19.0304 7.00843 18.8578 6.74994 18.6401 6.5322C18.4224 6.31446 18.164 6.14174 17.8796 6.02389C17.5951 5.90605 17.2903 5.8454 16.9824 5.8454ZM17.5678 13.7573C17.566 15.0778 17.0407 16.3438 16.107 17.2777C15.1733 18.2116 13.9074 18.7371 12.5868 18.739C9.96121 18.739 8.94515 17.7132 6.54505 12.6484C6.53474 12.6272 6.52389 12.6063 6.51249 12.5857C6.44131 12.4516 6.42493 12.2951 6.4668 12.1492C6.50867 12.0033 6.60552 11.8793 6.73697 11.8033C6.86842 11.7274 7.0242 11.7054 7.17154 11.742C7.31888 11.7786 7.44628 11.8709 7.52691 11.9995L7.5432 12.0248L8.91096 14.2229C9.01107 14.387 9.1622 14.5137 9.3412 14.5836C9.5202 14.6535 9.71719 14.6628 9.90198 14.61C10.0868 14.5573 10.2492 14.4454 10.3643 14.2915C10.4794 14.1376 10.5408 13.9502 10.5392 13.7581V7.01776C10.5392 6.8623 10.601 6.7132 10.7109 6.60327C10.8209 6.49334 10.97 6.43158 11.1254 6.43158C11.2809 6.43158 11.43 6.49334 11.5399 6.60327C11.6499 6.7132 11.7116 6.8623 11.7116 7.01776V11.4141C11.7214 11.6406 11.8182 11.8545 11.9819 12.0113C12.1455 12.1681 12.3634 12.2556 12.5901 12.2556C12.8167 12.2556 13.0346 12.1681 13.1983 12.0113C13.362 11.8545 13.4588 11.6406 13.4685 11.4141V5.8454C13.4685 5.76842 13.4837 5.69219 13.5132 5.62107C13.5426 5.54995 13.5858 5.48533 13.6402 5.4309C13.6947 5.37647 13.7593 5.33329 13.8304 5.30383C13.9015 5.27437 13.9777 5.25921 14.0547 5.25921C14.1317 5.25921 14.2079 5.27437 14.2791 5.30383C14.3502 5.33329 14.4148 5.37647 14.4692 5.4309C14.5237 5.48533 14.5668 5.54995 14.5963 5.62107C14.6258 5.69219 14.6409 5.76842 14.6409 5.8454V11.4133C14.6409 11.6466 14.7336 11.8704 14.8986 12.0354C15.0635 12.2003 15.2873 12.293 15.5206 12.293C15.7539 12.293 15.9777 12.2003 16.1426 12.0354C16.3076 11.8704 16.4003 11.6466 16.4003 11.4133V8.19013C16.4003 8.03467 16.462 7.88557 16.572 7.77564C16.6819 7.66571 16.831 7.60395 16.9865 7.60395C17.1419 7.60395 17.291 7.66571 17.401 7.77564C17.5109 7.88557 17.5726 8.03467 17.5726 8.19013V13.7589L17.5678 13.7573Z" fill="#1C1C1C" style="fill:#1C1C1C;fill:color(display-p3 0.1098 0.1098 0.1098);fill-opacity:1;"/>
</g>
<defs>
<clipPath id="clip0_1_2582">
<rect width="17" height="17" fill="white" style="fill:white;fill-opacity:1;" transform="translate(3.5 3.5)"/>
</clipPath>
</defs>
</svg>
