<svg width="16" height="16" viewBox="0 0 16 16" fill="none" xmlns="http://www.w3.org/2000/svg">
<path fill-rule="evenodd" clip-rule="evenodd" d="M7.08572 6.7104C7.08572 7.28638 6.61852 7.75354 6.04255 7.75354C5.46657 7.75354 4.99994 7.28638 4.99994 6.7104C4.99994 6.13444 5.46657 5.66724 6.04255 5.66724C6.61852 5.66724 7.08518 6.13387 7.08572 6.70928V6.7104Z" fill="#1C1C1C" style="fill:#1C1C1C;fill:color(display-p3 0.1098 0.1098 0.1098);fill-opacity:1;"/>
<path d="M11.6 3.11719H4.39995C3.323 3.11719 2.44995 3.99023 2.44995 5.06719V11.0672C2.44995 12.1441 3.323 13.0172 4.39995 13.0172H11.6C12.6769 13.0172 13.55 12.1441 13.55 11.0672V5.06719C13.55 3.99023 12.6769 3.11719 11.6 3.11719Z" stroke="#1C1C1C" style="stroke:#1C1C1C;stroke:color(display-p3 0.1098 0.1098 0.1098);stroke-opacity:1;" stroke-width="1.5"/>
<path d="M10.2548 8.66699C11.3162 8.66699 12.2926 9.61619 12.8 10.0859V12.267H3.19995C3.19995 12.267 3.97944 11.0278 4.79511 10.4209C5.61079 9.81401 6.54002 10.7608 7.56033 10.7608C8.58117 10.7608 9.19383 8.66699 10.2548 8.66699Z" fill="#1C1C1C" stroke="#1C1C1C" style="fill:#1C1C1C;fill:color(display-p3 0.1098 0.1098 0.1098);fill-opacity:1;stroke:#1C1C1C;stroke:color(display-p3 0.1098 0.1098 0.1098);stroke-opacity:1;" stroke-width="0.9" stroke-linecap="round" stroke-linejoin="round"/>
</svg>
