<svg width="16" height="16" viewBox="0 0 16 16" fill="none" xmlns="http://www.w3.org/2000/svg">
<path d="M3.66667 8.66659C4.03486 8.66659 4.33333 8.36811 4.33333 7.99992C4.33333 7.63173 4.03486 7.33325 3.66667 7.33325C3.29848 7.33325 3 7.63173 3 7.99992C3 8.36811 3.29848 8.66659 3.66667 8.66659Z" stroke="#1C1C1C" style="stroke:#1C1C1C;stroke:color(display-p3 0.1098 0.1098 0.1098);stroke-opacity:1;" stroke-width="1.33333" stroke-linecap="round" stroke-linejoin="round"/>
<path d="M7.99998 8.66659C8.36817 8.66659 8.66665 8.36811 8.66665 7.99992C8.66665 7.63173 8.36817 7.33325 7.99998 7.33325C7.63179 7.33325 7.33331 7.63173 7.33331 7.99992C7.33331 8.36811 7.63179 8.66659 7.99998 8.66659Z" stroke="#1C1C1C" style="stroke:#1C1C1C;stroke:color(display-p3 0.1098 0.1098 0.1098);stroke-opacity:1;" stroke-width="1.33333" stroke-linecap="round" stroke-linejoin="round"/>
<path d="M12.3334 8.66659C12.7015 8.66659 13 8.36811 13 7.99992C13 7.63173 12.7015 7.33325 12.3334 7.33325C11.9652 7.33325 11.6667 7.63173 11.6667 7.99992C11.6667 8.36811 11.9652 8.66659 12.3334 8.66659Z" stroke="#1C1C1C" style="stroke:#1C1C1C;stroke:color(display-p3 0.1098 0.1098 0.1098);stroke-opacity:1;" stroke-width="1.33333" stroke-linecap="round" stroke-linejoin="round"/>
</svg>
