<svg width="24" height="24" viewBox="0 0 24 24" fill="none" xmlns="http://www.w3.org/2000/svg">
<path d="M12.3093 4.05166C12.3071 3.39886 11.7268 2.9861 11.1203 3.04604C8.33328 3.32149 5.7142 4.89094 4.2066 7.50217C2.294 10.8149 2.72772 14.8379 4.99131 17.6476C4.64815 17.9621 4.3687 18.2339 4.14252 18.4649C3.86352 18.7497 3.78403 19.1172 3.89116 19.4379C3.99808 19.7578 4.28217 20.0052 4.67386 20.0709C5.81102 20.2616 7.07886 20.3474 8.1298 20.3841C8.8202 20.4083 9.41527 19.9089 9.51136 19.2248C9.65656 18.1908 9.79142 16.9381 9.80272 15.7917C9.8067 15.3899 9.60848 15.0644 9.3082 14.9025C9.00756 14.7404 8.62707 14.7544 8.29491 14.9824C8.05246 15.1487 7.77029 15.3514 7.44645 15.5971C6.01737 13.7878 5.75257 11.2187 6.97537 9.10074C7.86598 7.55817 9.35791 6.57952 10.9848 6.29005C11.4405 6.20896 11.9117 5.94391 12.078 5.44993C12.2581 4.91451 12.3106 4.43382 12.3093 4.05166Z" fill="#1C1C1C" style="fill:#1C1C1C;fill:color(display-p3 0.1098 0.1098 0.1098);fill-opacity:1;"/>
<path d="M11.6904 19.9483C11.6927 20.6011 12.2729 21.0139 12.8794 20.9539C15.6664 20.6785 18.2855 19.109 19.7931 16.4978C21.7057 13.1851 21.272 9.16204 19.0084 6.35236C19.3516 6.03788 19.631 5.76603 19.8572 5.5351C20.1362 5.25024 20.2157 4.8827 20.1086 4.56211C20.0017 4.24214 19.7175 3.99476 19.3259 3.92905C18.1887 3.73831 16.9209 3.65259 15.8699 3.61583C15.1795 3.59168 14.5845 4.09104 14.4884 4.77514C14.3431 5.80909 14.2083 7.06191 14.197 8.20818C14.193 8.61004 14.3912 8.93556 14.6915 9.09748C14.9922 9.2596 15.3726 9.24551 15.7048 9.01759C15.9473 8.85117 16.2294 8.64853 16.5533 8.40282C17.9824 10.2121 18.2471 12.7813 17.0244 14.8992C16.1337 16.4418 14.6418 17.4204 13.0149 17.7099C12.5593 17.791 12.088 18.056 11.9217 18.55C11.7416 19.0854 11.6891 19.5661 11.6904 19.9483Z" fill="#1C1C1C" style="fill:#1C1C1C;fill:color(display-p3 0.1098 0.1098 0.1098);fill-opacity:1;"/>
</svg>
