<svg width="16" height="16" viewBox="0 0 16 16" fill="none" xmlns="http://www.w3.org/2000/svg">
<path fill-rule="evenodd" clip-rule="evenodd" d="M10.5393 5.22168C10.7194 5.22157 10.8791 5.33715 10.9354 5.50821L11.7329 7.9326C11.7531 7.99535 11.7881 8.05238 11.8347 8.099C11.8814 8.14562 11.9384 8.18051 12.0012 8.20077L12.0029 8.20131L14.42 8.99314C14.5911 9.0492 14.7069 9.20884 14.707 9.38893C14.7071 9.56901 14.5915 9.7288 14.4204 9.78506L11.9961 10.5825C11.9334 10.6028 11.8764 10.6377 11.8297 10.6844C11.7831 10.7311 11.7482 10.7881 11.7279 10.8508L11.7274 10.8525L10.9355 13.2697C10.8795 13.4408 10.7199 13.5566 10.5398 13.5567C10.3597 13.5567 10.1999 13.4412 10.1436 13.2702L9.34618 10.8457C9.32585 10.783 9.29093 10.726 9.24427 10.6793C9.1976 10.6327 9.1406 10.5978 9.07785 10.5776L9.07618 10.5771L6.65903 9.78521C6.48788 9.72916 6.37212 9.56951 6.37201 9.38943C6.3719 9.20934 6.48748 9.04956 6.65854 8.99329L9.08293 8.19587C9.14568 8.17555 9.20268 8.14062 9.24935 8.09397C9.29593 8.04731 9.33085 7.99026 9.3511 7.92749L9.3516 7.92584L10.1434 5.50869C10.1995 5.33755 10.3592 5.22179 10.5393 5.22168Z" fill="#1C1C1C" style="fill:#1C1C1C;fill:color(display-p3 0.1098 0.1098 0.1098);fill-opacity:1;"/>
<path fill-rule="evenodd" clip-rule="evenodd" d="M1.1626 3.13794C1.1626 2.75434 1.47357 2.44336 1.85718 2.44336H14.3597C14.7433 2.44336 15.0543 2.75434 15.0543 3.13794C15.0543 3.52155 14.7433 3.83253 14.3597 3.83253H1.85718C1.47357 3.83253 1.1626 3.52155 1.1626 3.13794Z" fill="#1C1C1C" style="fill:#1C1C1C;fill:color(display-p3 0.1098 0.1098 0.1098);fill-opacity:1;"/>
<path fill-rule="evenodd" clip-rule="evenodd" d="M1.1626 7.30542C1.1626 6.92181 1.47357 6.61084 1.85718 6.61084H4.63552C5.01912 6.61084 5.3301 6.92181 5.3301 7.30542C5.3301 7.68903 5.01912 8.00001 4.63552 8.00001H1.85718C1.47357 8.00001 1.1626 7.68903 1.1626 7.30542Z" fill="#1C1C1C" style="fill:#1C1C1C;fill:color(display-p3 0.1098 0.1098 0.1098);fill-opacity:1;"/>
<path fill-rule="evenodd" clip-rule="evenodd" d="M1.1626 11.4729C1.1626 11.0893 1.47357 10.7783 1.85718 10.7783H4.63552C5.01912 10.7783 5.3301 11.0893 5.3301 11.4729C5.3301 11.8566 5.01912 12.1675 4.63552 12.1675H1.85718C1.47357 12.1675 1.1626 11.8566 1.1626 11.4729Z" fill="#1C1C1C" style="fill:#1C1C1C;fill:color(display-p3 0.1098 0.1098 0.1098);fill-opacity:1;"/>
</svg>
