<svg width="16" height="16" viewBox="0 0 16 16" fill="none" xmlns="http://www.w3.org/2000/svg">
<path d="M8.74469 9.62908C8.70195 9.97854 8.38472 10.25 8 10.25L7.91226 10.2448C7.53954 10.205 7.25006 9.90729 7.25006 9.54734L7.24931 5.32314L6.29163 6.27927C6.14962 6.421 5.95718 6.5006 5.75654 6.5006C5.55591 6.5006 5.36347 6.421 5.22146 6.27927C5.15126 6.2092 5.09556 6.12597 5.05756 6.03435C5.01956 5.94274 5 5.84452 5 5.74534C5 5.64615 5.01956 5.54794 5.05756 5.45632C5.09556 5.3647 5.15126 5.28148 5.22146 5.21141L7.46529 2.9722C7.53539 2.90177 7.61872 2.84589 7.71048 2.80776C7.80224 2.76963 7.90063 2.75 8 2.75C8.09937 2.75 8.19776 2.76963 8.28952 2.80776C8.38128 2.84589 8.46461 2.90177 8.53471 2.9722L10.7785 5.21141C10.8487 5.28148 10.9044 5.3647 10.9424 5.45632C10.9804 5.54794 11 5.64615 11 5.74534C11 5.84452 10.9804 5.94274 10.9424 6.03435C10.9044 6.12597 10.8487 6.2092 10.7785 6.27927C10.6366 6.42077 10.4443 6.50022 10.2438 6.50022C10.0434 6.50022 9.8511 6.42077 9.70912 6.27927L8.74919 5.32239L8.74994 9.54659L8.74469 9.62908Z" fill="#1C1C1C" style="fill:#1C1C1C;fill:color(display-p3 0.1098 0.1098 0.1098);fill-opacity:1;"/>
<path d="M3 11.25V12.25C3 12.8023 3.44772 13.25 4 13.25H12C12.5523 13.25 13 12.8023 13 12.25V11.25" stroke="#1C1C1C" style="stroke:#1C1C1C;stroke:color(display-p3 0.1098 0.1098 0.1098);stroke-opacity:1;" stroke-width="1.5" stroke-linecap="round"/>
</svg>
