<svg width="24" height="24" viewBox="0 0 24 24" fill="none" xmlns="http://www.w3.org/2000/svg">
<path d="M12.3091 4.05141C12.3068 3.39862 11.7266 2.98586 11.1201 3.0458C8.33303 3.32125 5.71396 4.8907 4.20636 7.50193C2.29375 10.8146 2.72748 14.8377 4.99106 17.6474C4.64791 17.9618 4.36845 18.2337 4.14227 18.4646C3.86327 18.7495 3.78379 19.117 3.89092 19.4376C3.99784 19.7576 4.28193 20.0049 4.67361 20.0707C5.81078 20.2614 7.07861 20.3471 8.12956 20.3839C8.81996 20.408 9.41502 19.9087 9.51111 19.2246C9.65632 18.1906 9.79117 16.9378 9.80248 15.7915C9.80646 15.3897 9.60823 15.0641 9.30795 14.9022C9.00731 14.7401 8.62683 14.7542 8.29466 14.9821C8.05222 15.1485 7.77005 15.3512 7.4462 15.5969C6.01713 13.7875 5.75233 11.2185 6.97512 9.10049C7.86574 7.55793 9.35767 6.57927 10.9845 6.2898C11.4402 6.20872 11.9115 5.94367 12.0777 5.44969C12.2579 4.91426 12.3104 4.43358 12.3091 4.05141Z" fill="white" style="fill:white;fill-opacity:1;"/>
<path d="M11.69 19.9481C11.6922 20.6009 12.2725 21.0136 12.8789 20.9537C15.666 20.6782 18.2851 19.1088 19.7927 16.4975C21.7053 13.1848 21.2716 9.1618 19.008 6.35211C19.3511 6.03764 19.6306 5.76578 19.8568 5.53485C20.1358 5.25 20.2153 4.88245 20.1081 4.56186C20.0012 4.2419 19.7171 3.99451 19.3254 3.92881C18.1883 3.73807 16.9204 3.65235 15.8695 3.61559C15.1791 3.59144 14.584 4.09079 14.4879 4.7749C14.3427 5.80885 14.2079 7.06166 14.1966 8.20794C14.1926 8.6098 14.3908 8.93531 14.6911 9.09724C14.9917 9.25936 15.3722 9.24527 15.7044 9.01735C15.9468 8.85093 16.229 8.64829 16.5529 8.40258C17.9819 10.2119 18.2467 12.781 17.0239 14.899C16.1333 16.4415 14.6414 17.4202 13.0145 17.7097C12.5588 17.7907 12.0875 18.0558 11.9213 18.5498C11.7412 19.0852 11.6887 19.5659 11.69 19.9481Z" fill="white" style="fill:white;fill-opacity:1;"/>
</svg>
