<svg width="24" height="24" viewBox="0 0 24 24" fill="none" xmlns="http://www.w3.org/2000/svg">
<path d="M16 19L7 19C5.34315 19 4 17.6569 4 16L4 7C4 5.89543 4.89543 5 6 5L9.58539 5C10.4708 5 11.2993 5.43645 11.8 6.16667C12.3007 6.89688 13.1292 7.33333 14.0146 7.33333L17 7.33333C18.1046 7.33333 19 8.22877 19 9.33334L19 10" stroke="white" style="stroke:white;stroke-opacity:1;" stroke-width="2" stroke-linecap="round" stroke-linejoin="round"/>
<path d="M5.08304 16.2639L6.81206 11.8959C7.265 10.7516 8.37083 10 9.60148 10H19.0573C20.4692 10 21.4366 11.4233 20.917 12.7361L19.1879 17.1041C18.735 18.2484 17.6292 19 16.3985 19H6.94265C5.53079 19 4.56341 17.5767 5.08304 16.2639Z" stroke="white" style="stroke:white;stroke-opacity:1;" stroke-width="2" stroke-linecap="round" stroke-linejoin="round"/>
</svg>
