<svg width="24" height="24" viewBox="0 0 24 24" fill="none" xmlns="http://www.w3.org/2000/svg">
<path d="M12.2891 3.00684L13.2478 3.29115C13.3359 2.99394 13.2812 2.67266 13.0997 2.42135C12.9182 2.17004 12.6305 2.01711 12.3206 2.00733L12.2891 3.00684ZM12 5L11 5V5H12ZM20.9922 11.71L21.9917 11.6783C21.9819 11.3685 21.829 11.0808 21.5777 10.8993C21.3264 10.7178 21.0051 10.6631 20.708 10.7512L20.9922 11.71ZM12.2891 3.00684L11.3303 2.72252C11.1162 3.44452 11 4.20898 11 5L12 5H13C13 4.40583 13.0872 3.83275 13.2478 3.29115L12.2891 3.00684ZM12 5H11C11 9.41828 14.5817 13 19 13V12V11C15.6863 11 13 8.31371 13 5H12ZM19 12V13C19.7919 13 20.5558 12.8823 21.2764 12.6687L20.9922 11.71L20.708 10.7512C20.1654 10.9121 19.5928 11 19 11V12ZM20.9922 11.71L19.9927 11.7416C19.9965 11.8613 20 11.924 20 12H21H22C22 11.8818 21.994 11.7513 21.9917 11.6783L20.9922 11.71ZM21 12H20C20 16.4183 16.4183 20 12 20V21V22C17.5228 22 22 17.5228 22 12H21ZM12 21V20C7.58172 20 4 16.4183 4 12H3H2C2 17.5228 6.47715 22 12 22V21ZM3 12H4C4 7.58172 7.58172 4 12 4V3V2C6.47715 2 2 6.47715 2 12H3ZM12 3V4C12.0764 4 12.1503 4.00296 12.2575 4.00634L12.2891 3.00684L12.3206 2.00733C12.2358 2.00466 12.1171 2 12 2V3Z" fill="#1C1C1C" style="fill:#1C1C1C;fill:color(display-p3 0.1098 0.1098 0.1098);fill-opacity:1;"/>
</svg>
