<svg width="15" height="15" viewBox="0 0 15 15" fill="none" xmlns="http://www.w3.org/2000/svg">
<path fill-rule="evenodd" clip-rule="evenodd" d="M6.28598 5.9106C6.28598 6.48658 5.81877 6.95374 5.2428 6.95374C4.66683 6.95374 4.2002 6.48658 4.2002 5.9106C4.2002 5.33463 4.66683 4.86743 5.2428 4.86743C5.81877 4.86743 6.28544 5.33407 6.28598 5.90948V5.9106Z" fill="#1C1C1C" style="fill:#1C1C1C;fill:color(display-p3 0.1098 0.1098 0.1098);fill-opacity:1;"/>
<path d="M10.7999 2.31738H3.5999C2.52295 2.31738 1.6499 3.19043 1.6499 4.26738V10.2674C1.6499 11.3443 2.52295 12.2174 3.5999 12.2174H10.7999C11.8769 12.2174 12.7499 11.3443 12.7499 10.2674V4.26738C12.7499 3.19043 11.8769 2.31738 10.7999 2.31738Z" stroke="#1C1C1C" style="stroke:#1C1C1C;stroke:color(display-p3 0.1098 0.1098 0.1098);stroke-opacity:1;" stroke-width="0.9"/>
<path d="M9.4547 7.86743C10.5162 7.86743 11.4925 8.81663 11.9999 9.28631V11.4674H2.3999C2.3999 11.4674 3.17939 10.2282 3.99506 9.62129C4.81074 9.01445 5.73997 9.96125 6.76028 9.96125C7.78112 9.96125 8.39378 7.86743 9.4547 7.86743Z" fill="#1C1C1C" stroke="#1C1C1C" style="fill:#1C1C1C;fill:color(display-p3 0.1098 0.1098 0.1098);fill-opacity:1;stroke:#1C1C1C;stroke:color(display-p3 0.1098 0.1098 0.1098);stroke-opacity:1;" stroke-width="0.9" stroke-linecap="round" stroke-linejoin="round"/>
</svg>
