<svg width="16" height="16" viewBox="0 0 16 16" fill="none" xmlns="http://www.w3.org/2000/svg">
<path d="M11.7549 8.86881C12.1742 8.81894 12.5 8.44884 12.5 8L12.4937 7.89763C12.446 7.46279 12.0888 7.12507 11.6568 7.12507L6.58777 7.12419L7.73512 6.0069C7.9052 5.84123 8.00072 5.61671 8.00072 5.38264C8.00072 5.14856 7.9052 4.92404 7.73512 4.75837C7.65104 4.67647 7.55117 4.61149 7.44122 4.56715C7.33128 4.52282 7.21343 4.5 7.0944 4.5C6.97538 4.5 6.85753 4.52282 6.74759 4.56715C6.63764 4.61149 6.53777 4.67647 6.45369 4.75837L3.76664 7.37617C3.68213 7.45796 3.61507 7.55517 3.56931 7.66222C3.52356 7.76928 3.5 7.88407 3.5 8C3.5 8.11593 3.52356 8.23072 3.56931 8.33778C3.61507 8.44483 3.68213 8.54204 3.76664 8.62383L6.45369 11.2416C6.53777 11.3235 6.63764 11.3885 6.74759 11.4328C6.85753 11.4772 6.97538 11.5 7.0944 11.5C7.21343 11.5 7.33128 11.4772 7.44122 11.4328C7.55117 11.3885 7.65104 11.3235 7.73512 11.2416C7.90492 11.076 8.00027 10.8517 8.00027 10.6178C8.00027 10.3839 7.90492 10.1596 7.73512 9.99398L6.58687 8.87406L11.6559 8.87494L11.7549 8.86881Z" fill="#1C1C1C" style="fill:#1C1C1C;fill:color(display-p3 0.1098 0.1098 0.1098);fill-opacity:1;"/>
</svg>
