<svg width="20" height="20" viewBox="0 0 20 20" fill="none" xmlns="http://www.w3.org/2000/svg">
<path d="M11.9667 14.4217L3.9563 12.2368" stroke="#1C1C1C" style="stroke:#1C1C1C;stroke:color(display-p3 0.1098 0.1098 0.1098);stroke-opacity:1;" stroke-width="1.50008" stroke-linecap="round" stroke-linejoin="round"/>
<path d="M14.7824 2.96462C14.9303 2.81677 15.1058 2.6995 15.299 2.61948C15.4921 2.53947 15.6992 2.49829 15.9083 2.49829C16.1173 2.49829 16.3244 2.53947 16.5175 2.61948C16.7107 2.6995 16.8862 2.81677 17.0341 2.96462C17.1819 3.11246 17.2992 3.28797 17.3792 3.48114C17.4592 3.67431 17.5004 3.88134 17.5004 4.09042C17.5004 4.29951 17.4592 4.50654 17.3792 4.69971C17.2992 4.89287 17.1819 5.06839 17.0341 5.21623L14.0204 8.23064C13.9501 8.30096 13.9106 8.39633 13.9106 8.49577C13.9106 8.59522 13.9501 8.69059 14.0204 8.76091L14.7284 9.46895C15.0674 9.80793 15.2578 10.2677 15.2578 10.747C15.2578 11.2264 15.0674 11.6861 14.7284 12.0251L14.0204 12.7331C13.9501 12.8034 13.8547 12.8429 13.7553 12.8429C13.6558 12.8429 13.5605 12.8034 13.4901 12.7331L7.26556 6.5093C7.19526 6.43897 7.15576 6.3436 7.15576 6.24416C7.15576 6.14472 7.19526 6.04935 7.26556 5.97902L7.9736 5.27098C8.31258 4.93205 8.77231 4.74165 9.25166 4.74165C9.73102 4.74165 10.1907 4.93205 10.5297 5.27098L11.2378 5.97902C11.3081 6.04933 11.4035 6.08882 11.5029 6.08882C11.6023 6.08882 11.6977 6.04933 11.768 5.97902L14.7824 2.96462Z" stroke="#1C1C1C" style="stroke:#1C1C1C;stroke:color(display-p3 0.1098 0.1098 0.1098);stroke-opacity:1;" stroke-width="1.50008" stroke-linecap="round" stroke-linejoin="round"/>
<path d="M7.74997 6.99854C6.3969 9.03114 4.77231 9.59367 2.81246 9.95969C2.74745 9.97156 2.68665 10.0002 2.63606 10.0427C2.58547 10.0852 2.54684 10.1402 2.52397 10.2022C2.50111 10.2642 2.4948 10.3311 2.50567 10.3963C2.51653 10.4615 2.54421 10.5227 2.58595 10.574L8.07623 17.2366C8.18775 17.355 8.33475 17.434 8.49506 17.4616C8.65538 17.4892 8.82033 17.4639 8.96503 17.3896C10.5514 16.3028 13.0002 13.5929 13.0002 12.2488" stroke="#1C1C1C" style="stroke:#1C1C1C;stroke:color(display-p3 0.1098 0.1098 0.1098);stroke-opacity:1;" stroke-width="1.50008" stroke-linecap="round" stroke-linejoin="round"/>
</svg>
