<svg width="20" height="20" viewBox="0 0 20 20" fill="none" xmlns="http://www.w3.org/2000/svg">
<path d="M11.9667 14.4217L3.9563 12.2368" stroke="#1C1C1C" style="stroke:#1C1C1C;stroke:color(display-p3 0.1098 0.1098 0.1098);stroke-opacity:1;" stroke-width="1.50008" stroke-linecap="round" stroke-linejoin="round"/>
<path d="M14.7824 2.96486C14.9303 2.81702 15.1058 2.69974 15.299 2.61973C15.4921 2.53972 15.6992 2.49854 15.9083 2.49854C16.1173 2.49854 16.3244 2.53972 16.5175 2.61973C16.7107 2.69974 16.8862 2.81702 17.0341 2.96486C17.1819 3.1127 17.2992 3.28822 17.3792 3.48138C17.4592 3.67455 17.5004 3.88159 17.5004 4.09067C17.5004 4.29975 17.4592 4.50678 17.3792 4.69995C17.2992 4.89312 17.1819 5.06863 17.0341 5.21648L14.0204 8.23088C13.9501 8.30121 13.9106 8.39658 13.9106 8.49602C13.9106 8.59546 13.9501 8.69083 14.0204 8.76116L14.7284 9.46919C15.0674 9.80817 15.2578 10.2679 15.2578 10.7473C15.2578 11.2266 15.0674 11.6863 14.7284 12.0253L14.0204 12.7334C13.9501 12.8037 13.8547 12.8432 13.7553 12.8432C13.6558 12.8432 13.5605 12.8037 13.4901 12.7334L7.26556 6.50954C7.19526 6.43921 7.15576 6.34384 7.15576 6.2444C7.15576 6.14496 7.19526 6.04959 7.26556 5.97926L7.9736 5.27123C8.31258 4.9323 8.77231 4.74189 9.25166 4.74189C9.73102 4.74189 10.1907 4.9323 10.5297 5.27123L11.2378 5.97926C11.3081 6.04957 11.4035 6.08906 11.5029 6.08906C11.6023 6.08906 11.6977 6.04957 11.768 5.97926L14.7824 2.96486Z" stroke="#1C1C1C" style="stroke:#1C1C1C;stroke:color(display-p3 0.1098 0.1098 0.1098);stroke-opacity:1;" stroke-width="1.50008" stroke-linecap="round" stroke-linejoin="round"/>
<path d="M7.74997 6.99866C6.3969 9.03126 4.77231 9.59379 2.81246 9.95981C2.74745 9.97168 2.68665 10.0003 2.63606 10.0428C2.58547 10.0853 2.54684 10.1403 2.52397 10.2023C2.50111 10.2643 2.4948 10.3312 2.50567 10.3964C2.51653 10.4616 2.54421 10.5229 2.58595 10.5741L8.07623 17.2367C8.18775 17.3551 8.33475 17.4341 8.49506 17.4617C8.65538 17.4893 8.82033 17.464 8.96503 17.3897C10.5514 16.3029 13.0002 13.593 13.0002 12.2489" stroke="#1C1C1C" style="stroke:#1C1C1C;stroke:color(display-p3 0.1098 0.1098 0.1098);stroke-opacity:1;" stroke-width="1.50008" stroke-linecap="round" stroke-linejoin="round"/>
</svg>
