<svg width="24" height="24" viewBox="0 0 24 24" fill="none" xmlns="http://www.w3.org/2000/svg">
<path d="M13.117 14.4436C13.0529 14.9678 12.5771 15.375 12 15.375L11.8684 15.3671C11.3093 15.3075 10.8751 14.8609 10.8751 14.321L10.874 7.98471L9.43744 9.4189C9.22443 9.6315 8.93577 9.7509 8.63482 9.7509C8.33386 9.7509 8.0452 9.6315 7.83219 9.4189C7.72689 9.3138 7.64334 9.18896 7.58634 9.05153C7.52934 8.9141 7.5 8.76679 7.5 8.61801C7.5 8.46923 7.52934 8.32191 7.58634 8.18448C7.64334 8.04706 7.72689 7.92222 7.83219 7.81711L11.1979 4.4583C11.3031 4.35266 11.4281 4.26884 11.5657 4.21164C11.7034 4.15444 11.8509 4.125 12 4.125C12.1491 4.125 12.2966 4.15444 12.4343 4.21164C12.5719 4.26884 12.6969 4.35266 12.8021 4.4583L16.1678 7.81711C16.2731 7.92222 16.3567 8.04706 16.4137 8.18448C16.4707 8.32191 16.5 8.46923 16.5 8.61801C16.5 8.76679 16.4707 8.9141 16.4137 9.05153C16.3567 9.18896 16.2731 9.3138 16.1678 9.4189C15.9548 9.63115 15.6664 9.75034 15.3657 9.75034C15.0651 9.75034 14.7766 9.63115 14.5637 9.4189L13.1238 7.98359L13.1249 14.3199L13.117 14.4436Z" fill="#1C1C1C" style="fill:#1C1C1C;fill:color(display-p3 0.1098 0.1098 0.1098);fill-opacity:1;"/>
<path d="M4.5 16.875V18.375C4.5 19.2034 5.17157 19.875 6 19.875H18C18.8284 19.875 19.5 19.2034 19.5 18.375V16.875" stroke="#1C1C1C" style="stroke:#1C1C1C;stroke:color(display-p3 0.1098 0.1098 0.1098);stroke-opacity:1;" stroke-width="2.25" stroke-linecap="round"/>
</svg>
