<svg width="15" height="12" viewBox="0 0 15 12" fill="none" xmlns="http://www.w3.org/2000/svg">
<path fill-rule="evenodd" clip-rule="evenodd" d="M10.0393 3.22168C10.2194 3.22157 10.3792 3.33715 10.4355 3.50821L11.2329 5.9326C11.2532 5.99535 11.2882 6.05238 11.3347 6.099C11.3814 6.14562 11.4385 6.18051 11.5012 6.20077L11.5029 6.20131L13.9201 6.99314C14.0912 7.0492 14.207 7.20884 14.2071 7.38893C14.2072 7.56901 14.0916 7.7288 13.9205 7.78506L11.4962 8.5825C11.4334 8.60283 11.3764 8.63775 11.3297 8.68441C11.2832 8.73108 11.2482 8.78808 11.228 8.85083L11.2274 8.8525L10.4356 11.2697C10.3796 11.4408 10.2199 11.5566 10.0398 11.5567C9.85975 11.5567 9.69991 11.4412 9.64366 11.2702L8.84625 8.84575C8.82591 8.783 8.791 8.726 8.74433 8.67933C8.69766 8.63275 8.64066 8.59783 8.57791 8.57758L8.57625 8.57708L6.15909 7.78521C5.98795 7.72916 5.87218 7.56951 5.87207 7.38943C5.87196 7.20934 5.98754 7.04956 6.1586 6.99329L8.583 6.19587C8.64575 6.17555 8.70275 6.14062 8.74941 6.09397C8.796 6.04731 8.83091 5.99026 8.85116 5.92749L8.85166 5.92584L9.6435 3.50869C9.69958 3.33755 9.85925 3.22179 10.0393 3.22168Z" fill="#1C1C1C" style="fill:#1C1C1C;fill:color(display-p3 0.1098 0.1098 0.1098);fill-opacity:1;"/>
<path fill-rule="evenodd" clip-rule="evenodd" d="M0.662598 1.13794C0.662598 0.754335 0.973573 0.443359 1.35718 0.443359H13.8597C14.2433 0.443359 14.5543 0.754335 14.5543 1.13794C14.5543 1.52155 14.2433 1.83253 13.8597 1.83253H1.35718C0.973573 1.83253 0.662598 1.52155 0.662598 1.13794Z" fill="#1C1C1C" style="fill:#1C1C1C;fill:color(display-p3 0.1098 0.1098 0.1098);fill-opacity:1;"/>
<path fill-rule="evenodd" clip-rule="evenodd" d="M0.662598 5.30542C0.662598 4.92181 0.973573 4.61084 1.35718 4.61084H4.13552C4.51912 4.61084 4.8301 4.92181 4.8301 5.30542C4.8301 5.68903 4.51912 6.00001 4.13552 6.00001H1.35718C0.973573 6.00001 0.662598 5.68903 0.662598 5.30542Z" fill="#1C1C1C" style="fill:#1C1C1C;fill:color(display-p3 0.1098 0.1098 0.1098);fill-opacity:1;"/>
<path fill-rule="evenodd" clip-rule="evenodd" d="M0.662598 9.4729C0.662598 9.08932 0.973573 8.77832 1.35718 8.77832H4.13552C4.51912 8.77832 4.8301 9.08932 4.8301 9.4729C4.8301 9.85657 4.51912 10.1675 4.13552 10.1675H1.35718C0.973573 10.1675 0.662598 9.85657 0.662598 9.4729Z" fill="#1C1C1C" style="fill:#1C1C1C;fill:color(display-p3 0.1098 0.1098 0.1098);fill-opacity:1;"/>
</svg>
