<svg width="18" height="18" viewBox="0 0 18 18" fill="none" xmlns="http://www.w3.org/2000/svg">
<path fill-rule="evenodd" clip-rule="evenodd" d="M7.85723 7.38782C7.85723 8.1078 7.27322 8.69175 6.55326 8.69175C5.83329 8.69175 5.25 8.1078 5.25 7.38782C5.25 6.66786 5.83329 6.08386 6.55326 6.08386C7.27322 6.08386 7.85655 6.66716 7.85723 7.38642V7.38782Z" fill="#1C1C1C" style="fill:#1C1C1C;fill:color(display-p3 0.1098 0.1098 0.1098);fill-opacity:1;"/>
<path d="M13.5 2.89636H4.5C3.15381 2.89636 2.0625 3.98767 2.0625 5.33386V12.8339C2.0625 14.1801 3.15381 15.2714 4.5 15.2714H13.5C14.8462 15.2714 15.9375 14.1801 15.9375 12.8339V5.33386C15.9375 3.98767 14.8462 2.89636 13.5 2.89636Z" stroke="#1C1C1C" style="stroke:#1C1C1C;stroke:color(display-p3 0.1098 0.1098 0.1098);stroke-opacity:1;" stroke-width="1.125"/>
<path d="M11.8185 9.83386C13.1453 9.83386 14.3658 11.0204 15 11.6075V14.3339H3C3 14.3339 3.97435 12.7848 4.99395 12.0262C6.01354 11.2676 7.17508 12.4511 8.45047 12.4511C9.72652 12.4511 10.4924 9.83386 11.8185 9.83386Z" fill="#1C1C1C" stroke="#1C1C1C" style="fill:#1C1C1C;fill:color(display-p3 0.1098 0.1098 0.1098);fill-opacity:1;stroke:#1C1C1C;stroke:color(display-p3 0.1098 0.1098 0.1098);stroke-opacity:1;" stroke-width="1.125" stroke-linecap="round" stroke-linejoin="round"/>
</svg>
