<svg width="17" height="17" viewBox="0 0 17 17" fill="none" xmlns="http://www.w3.org/2000/svg">
<g clip-path="url(#clip0_324_3759)">
<path d="M13.4824 2.3454C13.2844 2.3452 13.0872 2.37009 12.8954 2.41948V2.3454C12.8958 1.8149 12.7161 1.29997 12.3859 0.884798C12.0556 0.469624 11.5943 0.178758 11.0773 0.0597461C10.5604 -0.0592658 10.0183 0.000616295 9.53976 0.229604C9.06123 0.458591 8.67452 0.843139 8.44287 1.32039C8.08805 1.18761 7.70634 1.14282 7.33043 1.18985C6.95451 1.23688 6.5956 1.37433 6.28443 1.59042C5.97326 1.80651 5.7191 2.0948 5.54373 2.43061C5.36836 2.76642 5.277 3.13974 5.27747 3.51858V7.24655C4.89549 6.81256 4.36659 6.53506 3.79241 6.46737C3.21824 6.39969 2.63931 6.54659 2.16688 6.87986C1.69445 7.21312 1.36185 7.70923 1.23302 8.27285C1.10418 8.83646 1.18819 9.4278 1.4689 9.93323C3.7998 14.8466 5.23106 17 9.08686 17C10.874 16.9983 12.5875 16.2875 13.8511 15.0236C15.1146 13.7597 15.8251 12.0461 15.8263 10.2589V4.69013C15.8265 4.38226 15.7659 4.07737 15.6482 3.7929C15.5304 3.50843 15.3578 3.24994 15.1401 3.0322C14.9225 2.81446 14.664 2.64174 14.3796 2.52389C14.0952 2.40605 13.7903 2.3454 13.4824 2.3454ZM14.0678 10.2573C14.0661 11.5778 13.5408 12.8438 12.6071 13.7777C11.6733 14.7116 10.4074 15.2371 9.08686 15.239C6.46124 15.239 5.44518 14.2132 3.04508 9.14839C3.03477 9.12722 3.02392 9.10633 3.01252 9.0857C2.94134 8.95161 2.92496 8.79513 2.96683 8.6492C3.0087 8.50328 3.10555 8.37929 3.237 8.30333C3.36845 8.22737 3.52424 8.20538 3.67157 8.24197C3.81891 8.27856 3.94631 8.37089 4.02694 8.49952L4.04323 8.52476L5.41099 10.7229C5.5111 10.887 5.66223 11.0137 5.84123 11.0836C6.02023 11.1535 6.21722 11.1628 6.40201 11.11C6.5868 11.0573 6.74919 10.9454 6.8643 10.7915C6.9794 10.6376 7.04087 10.4502 7.03928 10.2581V3.51776C7.03928 3.3623 7.10104 3.2132 7.21097 3.10327C7.3209 2.99334 7.47 2.93158 7.62546 2.93158C7.78093 2.93158 7.93003 2.99334 8.03996 3.10327C8.14989 3.2132 8.21165 3.3623 8.21165 3.51776V7.91415C8.2214 8.14059 8.31821 8.35452 8.48189 8.5113C8.64557 8.66807 8.86346 8.7556 9.09011 8.7556C9.31676 8.7556 9.53466 8.66807 9.69833 8.5113C9.86201 8.35452 9.95882 8.14059 9.96857 7.91415V2.3454C9.96857 2.26842 9.98374 2.19219 10.0132 2.12107C10.0427 2.04995 10.0858 1.98533 10.1403 1.9309C10.1947 1.87647 10.2593 1.83329 10.3304 1.80383C10.4016 1.77437 10.4778 1.75921 10.5548 1.75921C10.6317 1.75921 10.708 1.77437 10.7791 1.80383C10.8502 1.83329 10.9148 1.87647 10.9693 1.9309C11.0237 1.98533 11.0669 2.04995 11.0963 2.12107C11.1258 2.19219 11.1409 2.26842 11.1409 2.3454V7.91333C11.1409 8.14664 11.2336 8.37039 11.3986 8.53536C11.5636 8.70034 11.7873 8.79302 12.0206 8.79302C12.2539 8.79302 12.4777 8.70034 12.6427 8.53536C12.8076 8.37039 12.9003 8.14664 12.9003 7.91333V4.69013C12.9003 4.53467 12.9621 4.38557 13.072 4.27564C13.1819 4.16571 13.331 4.10395 13.4865 4.10395C13.642 4.10395 13.7911 4.16571 13.901 4.27564C14.0109 4.38557 14.0727 4.53467 14.0727 4.69013V10.2589L14.0678 10.2573Z" fill="#1C1C1C" style="fill:#1C1C1C;fill:color(display-p3 0.1098 0.1098 0.1098);fill-opacity:1;"/>
</g>
<defs>
<clipPath id="clip0_324_3759">
<rect width="17" height="17" fill="white" style="fill:white;fill-opacity:1;"/>
</clipPath>
</defs>
</svg>
