<svg width="18" height="18" viewBox="0 0 18 18" fill="none" xmlns="http://www.w3.org/2000/svg">
<path fill-rule="evenodd" clip-rule="evenodd" d="M7.85723 7.38794C7.85723 8.10792 7.27322 8.69187 6.55326 8.69187C5.83329 8.69187 5.25 8.10792 5.25 7.38794C5.25 6.66799 5.83329 6.08398 6.55326 6.08398C7.27322 6.08398 7.85655 6.66728 7.85723 7.38654V7.38794Z" fill="#1C1C1C" style="fill:#1C1C1C;fill:color(display-p3 0.1098 0.1098 0.1098);fill-opacity:1;"/>
<path d="M13.5 2.89648H4.5C3.15381 2.89648 2.0625 3.98779 2.0625 5.33398V12.834C2.0625 14.1802 3.15381 15.2715 4.5 15.2715H13.5C14.8462 15.2715 15.9375 14.1802 15.9375 12.834V5.33398C15.9375 3.98779 14.8462 2.89648 13.5 2.89648Z" stroke="#1C1C1C" style="stroke:#1C1C1C;stroke:color(display-p3 0.1098 0.1098 0.1098);stroke-opacity:1;" stroke-width="1.125"/>
<path d="M11.8185 9.83374C13.1453 9.83374 14.3658 11.0202 15 11.6073V14.3337H3C3 14.3337 3.97435 12.7847 4.99395 12.0261C6.01354 11.2675 7.17508 12.451 8.45047 12.451C9.72652 12.451 10.4924 9.83374 11.8185 9.83374Z" fill="#1C1C1C" stroke="#1C1C1C" style="fill:#1C1C1C;fill:color(display-p3 0.1098 0.1098 0.1098);fill-opacity:1;stroke:#1C1C1C;stroke:color(display-p3 0.1098 0.1098 0.1098);stroke-opacity:1;" stroke-width="1.125" stroke-linecap="round" stroke-linejoin="round"/>
</svg>
