<svg width="20" height="20" viewBox="0 0 20 20" fill="none" xmlns="http://www.w3.org/2000/svg">
<path d="M10.9309 4.21365C10.8774 3.77683 10.4809 3.4375 10 3.4375L9.89032 3.44406C9.42442 3.49374 9.06257 3.86588 9.06257 4.31582L9.06163 9.59607L7.86454 8.40091C7.68703 8.22375 7.44648 8.12425 7.19568 8.12425C6.94488 8.12425 6.70433 8.22375 6.52682 8.40091C6.43907 8.4885 6.36945 8.59254 6.32195 8.70706C6.27445 8.82158 6.25 8.94435 6.25 9.06833C6.25 9.19231 6.27445 9.31507 6.32195 9.4296C6.36945 9.54412 6.43907 9.64815 6.52682 9.73574L9.33161 12.5348C9.41924 12.6228 9.5234 12.6926 9.6381 12.7403C9.7528 12.788 9.87579 12.8125 10 12.8125C10.1242 12.8125 10.2472 12.788 10.3619 12.7403C10.4766 12.6926 10.5808 12.6228 10.6684 12.5348L13.4732 9.73574C13.5609 9.64815 13.6305 9.54412 13.678 9.4296C13.7255 9.31507 13.75 9.19231 13.75 9.06833C13.75 8.94435 13.7255 8.82158 13.678 8.70706C13.6305 8.59254 13.5609 8.4885 13.4732 8.40091C13.2957 8.22404 13.0554 8.12472 12.8048 8.12472C12.5542 8.12472 12.3139 8.22404 12.1364 8.40091L10.9365 9.59701L10.9374 4.31676L10.9309 4.21365Z" fill="#1C1C1C" style="fill:#1C1C1C;fill:color(display-p3 0.1098 0.1098 0.1098);fill-opacity:1;"/>
<path d="M3.75 14.0625V15.3125C3.75 16.0029 4.30964 16.5625 5 16.5625H15C15.6904 16.5625 16.25 16.0029 16.25 15.3125V14.0625" stroke="#1C1C1C" style="stroke:#1C1C1C;stroke:color(display-p3 0.1098 0.1098 0.1098);stroke-opacity:1;" stroke-width="1.875" stroke-linecap="round"/>
</svg>
