<svg width="20" height="20" viewBox="0 0 20 20" fill="none" xmlns="http://www.w3.org/2000/svg">
<path d="M10.2412 2.50586L11.0402 2.74278C11.1136 2.49511 11.068 2.22739 10.9168 2.01797C10.7655 1.80854 10.5257 1.6811 10.2675 1.67294L10.2412 2.50586ZM10 4.16699H9.16667V4.16704L10 4.16699ZM15.833 10L15.833 10.8333H15.833V10ZM17.4932 9.75781L18.3261 9.73138C18.3179 9.47322 18.1904 9.23345 17.9811 9.08223C17.7717 8.93101 17.504 8.88544 17.2563 8.95884L17.4932 9.75781ZM10.2412 2.50586L9.44227 2.26894C9.26394 2.87028 9.16667 3.50753 9.16667 4.16699H10H10.8333C10.8333 3.67217 10.9062 3.19439 11.0402 2.74278L10.2412 2.50586ZM10 4.16699L9.16667 4.16704C9.16687 7.84864 12.1514 10.8331 15.833 10.8333L15.833 10L15.8331 9.16667C13.0719 9.16652 10.8335 6.92815 10.8333 4.16695L10 4.16699ZM15.833 10V10.8333C16.4934 10.8333 17.13 10.7346 17.73 10.5568L17.4932 9.75781L17.2563 8.95884C16.8037 9.09301 16.3264 9.16667 15.833 9.16667V10ZM17.4932 9.75781L16.6602 9.78425C16.6636 9.88856 16.6667 9.9363 16.6667 10H17.5H18.3333C18.3333 9.90156 18.3279 9.78796 18.3261 9.73138L17.4932 9.75781ZM17.5 10H16.6667C16.6667 13.6819 13.6819 16.6667 10 16.6667V17.5V18.3333C14.6024 18.3333 18.3333 14.6024 18.3333 10H17.5ZM10 17.5V16.6667C6.3181 16.6667 3.33333 13.6819 3.33333 10H2.5H1.66667C1.66667 14.6024 5.39763 18.3333 10 18.3333V17.5ZM2.5 10H3.33333C3.33333 6.3181 6.3181 3.33333 10 3.33333V2.5V1.66667C5.39763 1.66667 1.66667 5.39763 1.66667 10H2.5ZM10 2.5V3.33333C10.0635 3.33333 10.1236 3.33589 10.2149 3.33878L10.2412 2.50586L10.2675 1.67294C10.1986 1.67076 10.098 1.66667 10 1.66667V2.5Z" fill="#1C1C1C" style="fill:#1C1C1C;fill:color(display-p3 0.1098 0.1098 0.1098);fill-opacity:1;"/>
</svg>
