<svg width="18" height="18" viewBox="0 0 18 18" fill="none" xmlns="http://www.w3.org/2000/svg">
<path d="M11.2104 10.8459C10.9683 11.1229 10.8472 11.2615 10.7114 11.3833C10.5907 11.4914 10.4615 11.5897 10.325 11.677C10.1713 11.7753 10.0038 11.8558 9.66853 12.0167C8.86303 12.4035 8.46028 12.5969 8.1953 12.5287C7.96535 12.4695 7.77695 12.3049 7.68748 12.0849C7.58443 11.8315 7.7222 11.4064 7.9976 10.5564C8.11228 10.2026 8.16958 10.0258 8.24638 9.86032C8.3147 9.71332 8.39473 9.57217 8.48578 9.43815C8.5883 9.28725 8.70935 9.14872 8.95153 8.87167L12.7517 4.52353C12.807 4.46028 12.8347 4.42865 12.868 4.41525C12.8974 4.40346 12.9298 4.40129 12.9605 4.40903C12.9955 4.41783 13.0271 4.44548 13.0903 4.50076L14.9878 6.15909C15.0511 6.21438 15.0827 6.24202 15.0961 6.27545C15.1078 6.30485 15.11 6.33723 15.1023 6.36795C15.0935 6.40286 15.0658 6.43449 15.0106 6.49774L11.2104 10.8459Z" fill="#1C1C1C" style="fill:#1C1C1C;fill:color(display-p3 0.1098 0.1098 0.1098);fill-opacity:1;"/>
<path d="M15.6662 5.73799C15.6109 5.80124 15.5833 5.83287 15.5499 5.84627C15.5205 5.85806 15.4881 5.86024 15.4574 5.8525C15.4224 5.84369 15.3908 5.81605 15.3276 5.76076L13.4322 4.10423C13.3689 4.04895 13.3373 4.02131 13.3239 3.98788C13.3121 3.95848 13.3099 3.92611 13.3176 3.89539C13.3265 3.86047 13.3541 3.82884 13.4094 3.76559L13.7478 3.37834C13.9765 3.11672 14.0908 2.98591 14.2133 2.9036C14.5476 2.67899 14.9763 2.65015 15.3376 2.82799C15.47 2.89316 15.6009 3.00749 15.8625 3.23614C16.1241 3.46479 16.2549 3.57912 16.3372 3.70159C16.5618 4.03582 16.5906 4.46462 16.4128 4.82592C16.3476 4.95831 16.2333 5.08912 16.0047 5.35074L15.6662 5.73799Z" fill="#1C1C1C" style="fill:#1C1C1C;fill:color(display-p3 0.1098 0.1098 0.1098);fill-opacity:1;"/>
<path d="M7.125 13.5C7.125 13.5 5.42355 15.5114 4.5 15C3.57645 14.4886 6.32968 11.1102 6.32968 9.77677C6.32968 9.06015 4.1552 12.154 2.81498 12.5389C0.656544 13.1589 5.37831 3.75 5.37831 3.75" stroke="#1C1C1C" style="stroke:#1C1C1C;stroke:color(display-p3 0.1098 0.1098 0.1098);stroke-opacity:1;" stroke-width="1.125" stroke-linecap="round" stroke-linejoin="round"/>
</svg>
