<svg width="16" height="16" viewBox="0 0 16 16" fill="none" xmlns="http://www.w3.org/2000/svg">
<path d="M10.193 9.01709C11.3954 9.72434 12.2347 11.0064 12.3424 12.5005L12.3541 12.8267L12.3424 12.8501C12.3244 12.8784 12.2815 12.9288 12.192 12.9937C12.0075 13.1273 11.7012 13.2661 11.2701 13.3882C10.4161 13.6299 9.24026 13.7604 8.03674 13.7622C6.83275 13.764 5.65669 13.6368 4.80334 13.396C4.3727 13.2745 4.06718 13.1364 3.88342 13.0024C3.79438 12.9375 3.75236 12.8861 3.73401 12.8569C3.71904 12.8331 3.72034 12.8258 3.72034 12.8257C3.72047 11.1986 4.58929 9.78186 5.87463 9.02197C6.51558 9.37477 7.24932 9.57764 8.02991 9.57764C8.81347 9.5776 9.54964 9.37287 10.193 9.01709ZM8.02991 2.2417C9.50742 2.24182 10.7223 3.46157 10.7223 4.98877C10.7222 6.51482 9.50766 7.73377 8.02991 7.73389C6.55206 7.73389 5.3376 6.51489 5.33752 4.98877C5.33752 3.46219 6.5524 2.2417 8.02991 2.2417Z" stroke="#1C1C1C" style="stroke:#1C1C1C;stroke:color(display-p3 0.1098 0.1098 0.1098);stroke-opacity:1;" stroke-width="1.27969"/>
</svg>
