<svg width="24" height="24" viewBox="0 0 24 24" fill="none" xmlns="http://www.w3.org/2000/svg">
<path d="M10.4081 11.9082C10.9938 11.3225 11.9434 11.3227 12.5292 11.9082L18.8935 18.2725C19.4793 18.8582 19.4793 19.8078 18.8935 20.3936C18.3077 20.9793 17.3582 20.9793 16.7724 20.3936L10.4081 14.0293C9.82265 13.4435 9.82249 12.4939 10.4081 11.9082ZM5.37005 6.33984C6.39519 5.31498 8.0579 5.3148 9.08294 6.33984L9.61321 6.87012C10.638 7.89506 10.6377 9.55689 9.61321 10.582L9.08294 11.1123C8.05781 12.1374 6.39517 12.1374 5.37005 11.1123L4.83977 10.582C3.81501 9.55692 3.81488 7.89514 4.83977 6.87012L5.37005 6.33984ZM17.3486 8.40234C17.6117 8.40237 17.8443 8.57442 17.9208 8.82617C17.9868 9.04312 18.1563 9.21256 18.372 9.27832C18.6233 9.35502 18.7947 9.5869 18.7949 9.84961C18.7949 10.1125 18.6234 10.3451 18.372 10.4219C18.1561 10.4877 17.9867 10.6571 17.9208 10.874C17.8443 11.1257 17.6117 11.2978 17.3486 11.2979C17.0856 11.2977 16.8538 11.1256 16.7773 10.874C16.7113 10.657 16.541 10.4877 16.3251 10.4219C16.0739 10.345 15.9023 10.1124 15.9023 9.84961C15.9025 9.58685 16.0748 9.35497 16.3261 9.27832C16.5416 9.21252 16.7113 9.04315 16.7773 8.82617L16.8124 8.73535C16.9117 8.53394 17.1185 8.40245 17.3486 8.40234ZM7.49212 7.93066C7.34576 7.7843 7.10734 7.78448 6.96087 7.93066L6.43059 8.46094C6.28438 8.60729 6.28451 8.84478 6.43059 8.99121L6.96087 9.52148C7.10731 9.66793 7.34567 9.66793 7.49212 9.52148L8.02239 8.99121C8.16823 8.84475 8.16854 8.6072 8.02239 8.46094L7.49212 7.93066ZM14.6249 2.20801C14.9736 2.20804 15.2813 2.43595 15.3827 2.76953C15.4701 3.05701 15.6946 3.28192 15.9804 3.36914C16.3138 3.47072 16.5419 3.7784 16.5419 4.12695C16.5418 4.47526 16.3145 4.78306 15.9814 4.88477C15.6953 4.97202 15.4701 5.19602 15.3827 5.4834C15.2813 5.81708 14.9737 6.04587 14.6249 6.0459C14.2762 6.04584 13.9686 5.81702 13.8671 5.4834C13.7796 5.19591 13.5544 4.97196 13.2685 4.88477C12.9354 4.78302 12.7081 4.47522 12.7079 4.12695C12.708 3.77846 12.9361 3.47077 13.2695 3.36914C13.5552 3.28196 13.7796 3.05717 13.8671 2.76953L13.914 2.64941C14.0456 2.38227 14.3198 2.20806 14.6249 2.20801Z" fill="#1C1C1C" style="fill:#1C1C1C;fill:color(display-p3 0.1098 0.1098 0.1098);fill-opacity:1;"/>
</svg>
