<svg width="24" height="24" viewBox="0 0 24 24" fill="none" xmlns="http://www.w3.org/2000/svg">
<path d="M15.2928 13.5259C17.2247 14.6635 18.53 16.7918 18.5311 19.2388C18.5311 19.24 18.5306 19.2402 18.5302 19.2418C18.5294 19.2442 18.526 19.2553 18.5135 19.275C18.4866 19.3175 18.4231 19.3936 18.2889 19.4908C18.0122 19.6912 17.5528 19.8995 16.9061 20.0826C15.6249 20.4453 13.8602 20.6404 12.0546 20.6431C10.2486 20.6458 8.48497 20.4554 7.20496 20.0943C6.55893 19.912 6.10073 19.7044 5.82507 19.5035C5.69157 19.4061 5.62801 19.3295 5.60046 19.2857C5.57796 19.2499 5.58093 19.239 5.58093 19.2388C5.58096 16.799 6.88172 14.6731 8.80847 13.5328C9.77051 14.0629 10.8729 14.3658 12.0448 14.3658C13.2211 14.3657 14.3273 14.0604 15.2928 13.5259ZM12.0448 3.36285C14.2611 3.36303 16.0829 5.19217 16.0829 7.48297C16.0828 9.77204 14.2614 11.6 12.0448 11.6002C9.82802 11.6002 8.00585 9.77215 8.00574 7.48297C8.00574 5.1931 9.82853 3.36285 12.0448 3.36285Z" stroke="#1C1C1C" style="stroke:#1C1C1C;stroke:color(display-p3 0.1098 0.1098 0.1098);stroke-opacity:1;" stroke-width="1.91954"/>
</svg>
