<svg width="20" height="20" viewBox="0 0 20 20" fill="none" xmlns="http://www.w3.org/2000/svg">
<path d="M12.7415 11.2709C14.3527 12.2186 15.4418 13.9924 15.4426 16.0327L15.4417 16.0346C15.441 16.0366 15.4384 16.0465 15.428 16.0629C15.4054 16.0984 15.352 16.1608 15.2405 16.2416C15.0099 16.4087 14.6271 16.5822 14.0881 16.7348C13.0204 17.0371 11.55 17.2004 10.0452 17.2026C8.54026 17.2048 7.07079 17.0465 6.00415 16.7455C5.46586 16.5937 5.08446 16.4198 4.85474 16.2524C4.74379 16.1715 4.69029 16.1083 4.66724 16.0717C4.65017 16.0446 4.65044 16.0343 4.65063 16.0327C4.65063 13.999 5.73585 12.2279 7.34204 11.2778C8.1434 11.719 9.06133 11.9711 10.0374 11.9711C11.0169 11.9711 11.9372 11.7158 12.7415 11.2709ZM10.0374 2.80219C11.8842 2.80233 13.4026 4.32678 13.4026 6.23578C13.4025 8.14334 11.8845 9.66727 10.0374 9.66742C8.19004 9.66742 6.67221 8.14343 6.67212 6.23578C6.67212 4.32756 8.19046 2.80219 10.0374 2.80219Z" stroke="#1C1C1C" style="stroke:#1C1C1C;stroke:color(display-p3 0.1098 0.1098 0.1098);stroke-opacity:1;" stroke-width="1.59962"/>
</svg>
