<svg width="20" height="20" viewBox="0 0 20 20" fill="none" xmlns="http://www.w3.org/2000/svg">
<g clip-path="url(#clip0_241_4530)">
<path fill-rule="evenodd" clip-rule="evenodd" d="M12.2473 3.07735C12.5918 2.02988 14.0736 2.02989 14.4181 3.07735L15.4502 6.21587L18.5888 7.24804C19.6362 7.59254 19.6362 9.07429 18.5888 9.41879L15.4502 10.451L14.4181 13.5895C14.0736 14.637 12.5918 14.637 12.2473 13.5895L11.2152 10.451L8.07661 9.41879C7.02915 9.07429 7.02915 7.59254 8.07661 7.24804L11.2152 6.21587L12.2473 3.07735Z" fill="white" style="fill:white;fill-opacity:1;"/>
<path d="M7.66332 10.5138C7.34669 9.55105 5.98469 9.55105 5.66807 10.5138L4.90777 12.8255L2.59612 13.5858C1.63332 13.9024 1.63332 15.2644 2.59612 15.581L4.90777 16.3413L5.66807 18.653C5.98469 19.6158 7.34669 19.6158 7.66332 18.653L8.42361 16.3413L10.7353 15.581C11.6981 15.2644 11.6981 13.9024 10.7353 13.5858L8.42361 12.8255L7.66332 10.5138Z" fill="white" style="fill:white;fill-opacity:1;"/>
<path d="M5.95676 1.31787C5.65293 0.394045 4.34609 0.394044 4.04227 1.31787L3.36789 3.36838L1.31738 4.04275C0.393557 4.34658 0.393555 5.65342 1.31738 5.95725L3.36789 6.63162L4.04227 8.68212C4.34609 9.60596 5.65293 9.60596 5.95676 8.68212L6.63114 6.63162L8.68164 5.95725C9.60547 5.65342 9.60547 4.34658 8.68164 4.04275L6.63114 3.36838L5.95676 1.31787Z" fill="white" style="fill:white;fill-opacity:1;"/>
</g>
<defs>
<clipPath id="clip0_241_4530">
<rect width="20" height="20" fill="white" style="fill:white;fill-opacity:1;"/>
</clipPath>
</defs>
</svg>
