<svg width="16" height="16" viewBox="0 0 16 16" fill="none" xmlns="http://www.w3.org/2000/svg">
<path fill-rule="evenodd" clip-rule="evenodd" d="M6.93858 7.93848C7.329 7.5482 7.96214 7.54835 8.35264 7.93848L12.5958 12.1816C12.9861 12.5721 12.9861 13.2052 12.5958 13.5957C12.2053 13.9862 11.5723 13.9861 11.1817 13.5957L6.93858 9.35352C6.54806 8.96299 6.54806 8.329 6.93858 7.93848ZM3.58018 4.22656C4.26361 3.54333 5.37143 3.54322 6.05479 4.22656L6.40831 4.58008C7.09167 5.26344 7.09155 6.37126 6.40831 7.05469L6.05479 7.4082C5.37138 8.09162 4.2636 8.09162 3.58018 7.4082L3.22667 7.05469C2.54326 6.37127 2.54325 5.26349 3.22667 4.58008L3.58018 4.22656ZM11.5655 5.60156C11.7408 5.60168 11.8963 5.71617 11.9474 5.88379C11.9913 6.02842 12.1043 6.14173 12.2482 6.18555C12.4155 6.23675 12.5303 6.39134 12.5304 6.56641C12.5304 6.74164 12.4157 6.89704 12.2482 6.94824C12.1043 6.99209 11.9914 7.10455 11.9474 7.24902C11.8964 7.4168 11.7409 7.53211 11.5655 7.53223C11.3903 7.53204 11.2357 7.41668 11.1847 7.24902C11.1407 7.10457 11.0275 6.99216 10.8839 6.94824C10.7162 6.89711 10.6017 6.74171 10.6017 6.56641C10.6018 6.39123 10.7163 6.23664 10.8839 6.18555C11.0276 6.14168 11.1407 6.02846 11.1847 5.88379L11.2081 5.82422C11.2742 5.6897 11.412 5.60172 11.5655 5.60156ZM4.99425 5.28711C4.89667 5.18955 4.73837 5.18966 4.64073 5.28711L4.28721 5.64062C4.18959 5.73825 4.1896 5.89651 4.28721 5.99414L4.64073 6.34766C4.73836 6.44529 4.89661 6.44529 4.99425 6.34766L5.34776 5.99414C5.44522 5.8965 5.44533 5.7382 5.34776 5.64062L4.99425 5.28711ZM9.75011 1.47168C9.98252 1.4718 10.1874 1.62428 10.255 1.84668C10.3133 2.03836 10.4638 2.18802 10.6544 2.24609C10.8763 2.31399 11.0284 2.51886 11.0284 2.75098C11.0284 2.98314 10.8763 3.18791 10.6544 3.25586C10.4636 3.31402 10.3132 3.4646 10.255 3.65625C10.1872 3.87835 9.98234 4.03015 9.75011 4.03027C9.51779 4.03027 9.31302 3.87842 9.24522 3.65625C9.18693 3.46454 9.03643 3.31406 8.84581 3.25586C8.62375 3.18798 8.47176 2.98321 8.47179 2.75098C8.47185 2.51879 8.62377 2.31393 8.84581 2.24609C9.03624 2.18799 9.18688 2.03837 9.24522 1.84668L9.27647 1.7666C9.36422 1.58846 9.54666 1.47168 9.75011 1.47168Z" fill="#1C1C1C" style="fill:#1C1C1C;fill:color(display-p3 0.1098 0.1098 0.1098);fill-opacity:1;"/>
</svg>
