<svg width="20" height="20" viewBox="0 0 20 20" fill="none" xmlns="http://www.w3.org/2000/svg">
<path d="M13.333 15.8333L5.83301 15.8333C4.4523 15.8333 3.33301 14.714 3.33301 13.3333L3.33301 5.83325C3.33301 4.91278 4.0792 4.16659 4.99968 4.16659L7.9875 4.16659C8.72533 4.16659 9.41574 4.5303 9.83301 5.13881C10.2503 5.74732 10.9407 6.11103 11.6785 6.11103L14.1663 6.11103C15.0868 6.11103 15.833 6.85722 15.833 7.7777L15.833 8.33325" stroke="#1C1C1C" style="stroke:#1C1C1C;stroke:color(display-p3 0.1098 0.1098 0.1098);stroke-opacity:1;" stroke-width="1.66667" stroke-linecap="round" stroke-linejoin="round"/>
<path d="M4.23578 13.5533L5.67663 9.91325C6.05408 8.9597 6.97561 8.33337 8.00115 8.33337H15.881C17.0576 8.33337 17.8637 9.51949 17.4307 10.6135L15.9899 14.2535C15.6124 15.2071 14.6909 15.8334 13.6654 15.8334H5.78546C4.60891 15.8334 3.80276 14.6473 4.23578 13.5533Z" stroke="#1C1C1C" style="stroke:#1C1C1C;stroke:color(display-p3 0.1098 0.1098 0.1098);stroke-opacity:1;" stroke-width="1.66667" stroke-linecap="round" stroke-linejoin="round"/>
</svg>
