<svg width="16" height="16" viewBox="0 0 16 16" fill="none" xmlns="http://www.w3.org/2000/svg">
<path d="M8.00732 1.25195C4.48413 1.25195 1.61443 4.12165 1.61443 7.64485V8.59668C1.60732 8.6393 1.60022 8.68192 1.60022 8.72454V14.0377C1.60022 14.4284 1.91986 14.7481 2.31054 14.7481H4.29234C4.68302 14.7481 5.00266 14.4284 5.00266 14.0377V13.4837C5.79112 14.265 6.8424 14.7481 8.00732 14.7481C9.17225 14.7481 10.2164 14.265 11.012 13.4837V14.0377C11.012 14.4284 11.3316 14.7481 11.7223 14.7481H13.6899C14.0806 14.7481 14.4002 14.4284 14.4002 14.0377V7.64485C14.4002 4.12165 11.5305 1.25195 8.00732 1.25195ZM8.00732 13.3274C6.35227 13.3274 5.00266 11.85 5.00266 10.0244V8.77426C5.64195 8.15628 6.05394 7.51699 6.30255 6.92032C7.11232 7.94319 8.53296 8.95895 11.0049 9.14363V10.0315C11.0049 11.85 9.66237 13.3274 8.00732 13.3274ZM12.9796 13.3274H12.4326V8.46172C12.4326 8.07104 12.1201 7.7514 11.7294 7.7514C7.46748 7.71588 6.77136 5.00245 6.67902 4.51233C6.66481 4.4342 6.65061 4.38447 6.65061 4.37027C6.57247 4.0009 6.21731 3.75939 5.84084 3.81622C5.46437 3.87304 5.20155 4.2211 5.25127 4.59757C5.25127 4.59757 5.25838 4.63309 5.26548 4.68991C5.301 4.93142 5.45727 6.49413 3.82353 7.92188C3.74703 7.98784 3.68581 8.06965 3.6441 8.16165C3.6024 8.25364 3.58121 8.35361 3.58202 8.45462V13.3203H3.02086V9.93209C3.02797 9.88947 3.03507 9.84685 3.03507 9.79713V7.64485C3.03507 4.90301 5.26548 2.6726 8.00732 2.6726C10.7492 2.6726 12.9796 4.90301 12.9796 7.64485V13.3274Z" fill="#1C1C1C" style="fill:#1C1C1C;fill:color(display-p3 0.1098 0.1098 0.1098);fill-opacity:1;"/>
</svg>
