<svg width="20" height="20" viewBox="0 0 20 20" fill="none" xmlns="http://www.w3.org/2000/svg">
<g clip-path="url(#clip0_228_4307)">
<path fill-rule="evenodd" clip-rule="evenodd" d="M12.2473 3.07728C12.5918 2.02981 14.0736 2.02982 14.4181 3.07728L15.4502 6.2158L18.5888 7.24797C19.6362 7.59247 19.6362 9.07422 18.5888 9.41872L15.4502 10.4509L14.4181 13.5894C14.0736 14.6369 12.5918 14.6369 12.2473 13.5894L11.2152 10.4509L8.07661 9.41872C7.02915 9.07422 7.02915 7.59247 8.07661 7.24797L11.2152 6.2158L12.2473 3.07728Z" fill="white" style="fill:white;fill-opacity:1;"/>
<path d="M7.66332 10.5138C7.34669 9.55096 5.98469 9.55096 5.66807 10.5138L4.90777 12.8254L2.59612 13.5857C1.63332 13.9023 1.63332 15.2643 2.59612 15.581L4.90777 16.3413L5.66807 18.6529C5.98469 19.6157 7.34669 19.6157 7.66332 18.6529L8.42361 16.3413L10.7353 15.581C11.6981 15.2643 11.6981 13.9023 10.7353 13.5857L8.42361 12.8254L7.66332 10.5138Z" fill="white" style="fill:white;fill-opacity:1;"/>
<path d="M5.95676 1.31788C5.65293 0.394061 4.34609 0.394059 4.04227 1.31788L3.36789 3.36839L1.31738 4.04277C0.393557 4.3466 0.393555 5.65343 1.31738 5.95726L3.36789 6.63164L4.04227 8.68214C4.34609 9.60597 5.65293 9.60597 5.95676 8.68214L6.63114 6.63164L8.68164 5.95726C9.60547 5.65343 9.60547 4.3466 8.68164 4.04277L6.63114 3.36839L5.95676 1.31788Z" fill="white" style="fill:white;fill-opacity:1;"/>
</g>
<defs>
<clipPath id="clip0_228_4307">
<rect width="20" height="20" fill="white" style="fill:white;fill-opacity:1;"/>
</clipPath>
</defs>
</svg>
