<svg width="20" height="20" viewBox="0 0 20 20" fill="none" xmlns="http://www.w3.org/2000/svg">
<path d="M12.7412 11.271C14.3524 12.2186 15.4416 13.9924 15.4424 16.0327L15.4414 16.0346C15.4408 16.0367 15.4382 16.0465 15.4277 16.0629C15.4052 16.0984 15.3517 16.1608 15.2402 16.2417C15.0096 16.4087 14.6268 16.5822 14.0879 16.7348C13.0201 17.0371 11.5497 17.2004 10.0449 17.2026C8.54002 17.2048 7.07055 17.0465 6.00391 16.7456C5.46561 16.5937 5.08422 16.4198 4.85449 16.2524C4.74355 16.1715 4.69005 16.1083 4.66699 16.0717C4.64993 16.0446 4.65019 16.0343 4.65039 16.0327C4.65039 13.9991 5.73561 12.2279 7.3418 11.2778C8.14315 11.719 9.06108 11.9711 10.0371 11.9711C11.0167 11.9711 11.937 11.7158 12.7412 11.271ZM10.0371 2.8022C11.884 2.80235 13.4023 4.3268 13.4023 6.23579C13.4022 8.14335 11.8843 9.66729 10.0371 9.66743C8.18979 9.66743 6.67197 8.14344 6.67188 6.23579C6.67188 4.32757 8.19022 2.8022 10.0371 2.8022Z" stroke="#1C1C1C" style="stroke:#1C1C1C;stroke:color(display-p3 0.1098 0.1098 0.1098);stroke-opacity:1;" stroke-width="1.59962"/>
</svg>
