<svg width="16" height="16" viewBox="0 0 16 16" fill="none" xmlns="http://www.w3.org/2000/svg">
<path d="M10.193 9.01697C11.3954 9.72421 12.2347 11.0062 12.3424 12.5004L12.3541 12.8265L12.3424 12.85C12.3244 12.8783 12.2815 12.9287 12.192 12.9935C12.0075 13.1272 11.7012 13.266 11.2701 13.3881C10.4161 13.6298 9.24026 13.7603 8.03674 13.7621C6.83275 13.7639 5.65669 13.6366 4.80334 13.3959C4.3727 13.2744 4.06718 13.1363 3.88342 13.0023C3.79438 12.9374 3.75236 12.886 3.73401 12.8568C3.71904 12.833 3.72034 12.8256 3.72034 12.8256C3.72047 11.1985 4.58929 9.78174 5.87463 9.02185C6.51558 9.37465 7.24932 9.57751 8.02991 9.57751C8.81347 9.57748 9.54964 9.37274 10.193 9.01697ZM8.02991 2.24158C9.50742 2.2417 10.7223 3.46145 10.7223 4.98865C10.7222 6.51469 9.50766 7.73365 8.02991 7.73376C6.55206 7.73376 5.3376 6.51477 5.33752 4.98865C5.33752 3.46207 6.5524 2.24158 8.02991 2.24158Z" stroke="#1C1C1C" style="stroke:#1C1C1C;stroke:color(display-p3 0.1098 0.1098 0.1098);stroke-opacity:1;" stroke-width="1.27969"/>
</svg>
