<svg width="16" height="16" viewBox="0 0 16 16" fill="none" xmlns="http://www.w3.org/2000/svg">
<path d="M11.0465 2.9412L10.9424 3.04976C10.7259 3.2774 10.4654 3.45877 10.1768 3.58291C9.88813 3.70704 9.57733 3.77136 9.26314 3.77197H7.13637C6.50167 3.77197 5.89687 3.50945 5.45822 3.04976L5.3541 2.9412L2.51841 5.90428L3.47102 6.90009C3.69743 6.87513 3.92655 6.89828 4.14339 6.96801C4.36023 7.03775 4.5599 7.15251 4.72931 7.30477C4.89872 7.45703 5.03406 7.64336 5.12645 7.85155C5.21885 8.05975 5.26623 8.28512 5.26548 8.5129V13.2616H11.1351V8.5129C11.1344 8.28533 11.1818 8.06017 11.274 7.85214C11.3663 7.64411 11.5014 7.4579 11.6706 7.30568C11.8397 7.15345 12.0391 7.03864 12.2557 6.96875C12.4723 6.89886 12.7012 6.87547 12.9274 6.90009L13.88 5.90317L11.0465 2.9412ZM3.87976 9.63609V8.5129C3.88045 8.47576 3.87229 8.439 3.85594 8.40565C3.8396 8.3723 3.81554 8.34333 3.78576 8.32113C3.75599 8.29893 3.72135 8.28415 3.68472 8.27801C3.6481 8.27187 3.61053 8.27455 3.57514 8.28582C3.41067 8.33427 3.23597 8.33611 3.07051 8.29113C2.90506 8.24614 2.75534 8.15611 2.63804 8.03105L1.28111 6.6132C1.09979 6.42178 0.999048 6.16795 0.99976 5.90428C0.99976 5.63843 1.10056 5.38366 1.28111 5.19536L4.67508 1.64742C4.76237 1.55521 4.86745 1.48166 4.98397 1.43121C5.10048 1.38076 5.22602 1.35445 5.35299 1.35388C5.60776 1.35388 5.85145 1.45911 6.0309 1.64742L6.45736 2.09271C6.6368 2.28102 6.8816 2.38736 7.13637 2.38736H9.26203C9.5168 2.38736 9.7605 2.28102 9.93994 2.09271L10.3664 1.64742C10.454 1.55495 10.5594 1.48124 10.6763 1.43078C10.7932 1.38031 10.9192 1.35415 11.0465 1.35388C11.3013 1.35388 11.545 1.45911 11.7244 1.64742L15.1184 5.19425C15.299 5.38256 15.3998 5.63733 15.3998 5.90317C15.3998 6.16902 15.299 6.4249 15.1184 6.6132L13.7615 8.03105C13.6442 8.15611 13.4945 8.24614 13.329 8.29113C13.1635 8.33611 12.9888 8.33427 12.8244 8.28582C12.789 8.27455 12.7514 8.27187 12.7148 8.27801C12.6782 8.28415 12.6435 8.29893 12.6138 8.32113C12.584 8.34333 12.5599 8.3723 12.5436 8.40565C12.5272 8.439 12.5191 8.47576 12.5198 8.5129V9.63609C12.5198 9.63683 12.5198 9.63757 12.5198 9.63831V13.6426C12.5198 14.1942 12.0878 14.6462 11.5594 14.6462H4.84013C4.31176 14.6462 3.87976 14.1942 3.87976 13.6426V9.63942C3.87976 9.63868 3.87976 9.63794 3.87976 9.6372V9.63609Z" fill="#1C1C1C" style="fill:#1C1C1C;fill:color(display-p3 0.1098 0.1098 0.1098);fill-opacity:1;"/>
</svg>
