<svg width="16" height="16" viewBox="0 0 16 16" fill="none" xmlns="http://www.w3.org/2000/svg">
<path d="M9.33333 10.9167H14M2 10.9167H3.33333M3.33333 10.9167C3.33333 11.8371 4.07953 12.5833 5 12.5833C5.92047 12.5833 6.66667 11.8371 6.66667 10.9167C6.66667 9.99619 5.92047 9.25 5 9.25C4.07953 9.25 3.33333 9.99619 3.33333 10.9167ZM13.3333 4.91667H14M2 4.91667H6.66667M11 6.58333C10.0795 6.58333 9.33333 5.83714 9.33333 4.91667C9.33333 3.99619 10.0795 3.25 11 3.25C11.9205 3.25 12.6667 3.99619 12.6667 4.91667C12.6667 5.83714 11.9205 6.58333 11 6.58333Z" stroke="#1C1C1C" style="stroke:#1C1C1C;stroke:color(display-p3 0.1098 0.1098 0.1098);stroke-opacity:1;" stroke-width="1.33333" stroke-linecap="round" stroke-linejoin="round"/>
</svg>
