<svg width="16" height="16" viewBox="0 0 16 16" fill="none" xmlns="http://www.w3.org/2000/svg">
<path d="M8.74469 3.37092C8.70195 3.02146 8.38472 2.75 8 2.75L7.91226 2.75525C7.53954 2.79499 7.25006 3.09271 7.25006 3.45266L7.24931 7.67686L6.29163 6.72073C6.14962 6.579 5.95718 6.4994 5.75654 6.4994C5.55591 6.4994 5.36347 6.579 5.22146 6.72073C5.15126 6.7908 5.09556 6.87403 5.05756 6.96565C5.01956 7.05726 5 7.15548 5 7.25466C5 7.35385 5.01956 7.45206 5.05756 7.54368C5.09556 7.6353 5.15126 7.71852 5.22146 7.78859L7.46529 10.0278C7.53539 10.0982 7.61872 10.1541 7.71048 10.1922C7.80224 10.2304 7.90063 10.25 8 10.25C8.09937 10.25 8.19776 10.2304 8.28952 10.1922C8.38128 10.1541 8.46461 10.0982 8.53471 10.0278L10.7785 7.78859C10.8487 7.71852 10.9044 7.6353 10.9424 7.54368C10.9804 7.45206 11 7.35385 11 7.25466C11 7.15548 10.9804 7.05726 10.9424 6.96565C10.9044 6.87403 10.8487 6.7908 10.7785 6.72073C10.6366 6.57923 10.4443 6.49978 10.2438 6.49978C10.0434 6.49978 9.8511 6.57923 9.70912 6.72073L8.74919 7.67761L8.74994 3.45341L8.74469 3.37092Z" fill="#1C1C1C" style="fill:#1C1C1C;fill:color(display-p3 0.1098 0.1098 0.1098);fill-opacity:1;"/>
<path d="M3 11.25V12.25C3 12.8023 3.44772 13.25 4 13.25H12C12.5523 13.25 13 12.8023 13 12.25V11.25" stroke="#1C1C1C" style="stroke:#1C1C1C;stroke:color(display-p3 0.1098 0.1098 0.1098);stroke-opacity:1;" stroke-width="1.5" stroke-linecap="round"/>
</svg>
